<svg width="20" height="20" viewBox="0 0 20 20" fill="none" xmlns="http://www.w3.org/2000/svg">
<path d="M5 1C4.44772 1 4 1.44772 4 2V3H2C1.44772 3 1 3.44772 1 4V7H19V4C19 3.44772 18.5523 3 18 3H16V2C16 1.44772 15.5523 1 15 1C14.4477 1 14 1.44772 14 2V3H6V2C6 1.44772 5.55228 1 5 1Z" fill="#999999"/>
<path fill-rule="evenodd" clip-rule="evenodd" d="M19 9H1V18C1 18.5523 1.44772 19 2 19H18C18.5523 19 19 18.5523 19 18V9ZM7 13V11H5V13H7ZM5 17V15H7V17H5ZM11 11H9V13H11V11ZM9 15H11V17H9V15ZM15 13V11H13V13H15ZM13 17V15H15V17H13Z" fill="#999999"/>
</svg>
