<svg width="18" height="18" viewBox="0 0 18 18" fill="none" xmlns="http://www.w3.org/2000/svg">
<circle cx="9" cy="9" r="9" fill="#333333"/>
<path fill-rule="evenodd" clip-rule="evenodd" d="M4.49999 9C4.49999 8.68934 4.75183 8.4375 5.06249 8.4375L8.43787 8.4375L8.43787 5.06268C8.43787 4.75202 8.68971 4.50018 9.00037 4.50018C9.31103 4.50018 9.56287 4.75202 9.56287 5.06268L9.56287 8.4375L12.9377 8.4375C13.2484 8.4375 13.5002 8.68934 13.5002 9C13.5002 9.31066 13.2484 9.5625 12.9377 9.5625L9.56287 9.5625L9.56287 12.9376C9.56287 13.2482 9.31103 13.5001 9.00037 13.5001C8.68971 13.5001 8.43787 13.2482 8.43787 12.9376L8.43787 9.5625L5.06249 9.5625C4.75183 9.5625 4.49999 9.31066 4.49999 9Z" fill="#999999"/>
</svg>
