<svg width="198" height="24" viewBox="0 0 198 24" fill="none" xmlns="http://www.w3.org/2000/svg">
<g clip-path="url(#clip0_57_196)">
<path d="M98.459 18.571V17.596C97.302 17.557 96.808 16.946 96.808 16.127C96.808 15.308 97.315 14.502 97.315 13.592C97.315 12.799 96.886 12.396 96.158 12.006C96.886 11.603 97.315 11.187 97.315 10.42C97.315 9.497 96.808 8.678 96.808 7.872C96.808 7.04 97.302 6.442 98.459 6.403V5.441C96.483 5.48 95.43 6.559 95.43 7.872C95.43 8.834 95.924 9.653 95.924 10.42C95.924 11.239 95.495 11.59 94.507 11.889V12.11C95.495 12.396 95.924 12.76 95.924 13.592C95.924 14.346 95.43 15.165 95.43 16.127C95.43 17.427 96.483 18.519 98.459 18.571Z" fill="#D34037"/>
<path d="M105.874 12.981C105.874 10.732 104.548 9.432 102.663 9.432C100.804 9.432 99.2572 10.81 99.2572 12.994C99.2572 15.23 100.661 16.569 102.728 16.569C103.911 16.569 104.821 16.218 105.562 15.412L104.808 14.502C104.197 15.1 103.586 15.334 102.832 15.334C101.597 15.334 100.817 14.658 100.687 13.358H105.861C105.861 13.228 105.874 13.111 105.874 12.981ZM102.65 10.602C103.69 10.602 104.314 11.304 104.431 12.37H100.713C100.895 11.304 101.649 10.602 102.65 10.602Z" fill="#E5E5E5"/>
<path d="M113.464 9.614H111.891L109.928 14.073L107.939 9.614H106.34L109.759 16.543H110.032L113.464 9.614Z" fill="#E5E5E5"/>
<path d="M120.601 12.981C120.601 10.732 119.275 9.432 117.39 9.432C115.531 9.432 113.984 10.81 113.984 12.994C113.984 15.23 115.388 16.569 117.455 16.569C118.638 16.569 119.548 16.218 120.289 15.412L119.535 14.502C118.924 15.1 118.313 15.334 117.559 15.334C116.324 15.334 115.544 14.658 115.414 13.358H120.588C120.588 13.228 120.601 13.111 120.601 12.981ZM117.377 10.602C118.417 10.602 119.041 11.304 119.158 12.37H115.44C115.622 11.304 116.376 10.602 117.377 10.602Z" fill="#E5E5E5"/>
<path d="M125.874 9.432C124.886 9.432 124.119 9.835 123.612 10.654L123.573 9.614H122.234V16.4H123.625V12.812C123.625 11.33 124.444 10.732 125.38 10.732C126.355 10.732 126.927 11.304 126.927 12.552V16.4H128.318V12.383C128.318 10.433 127.304 9.432 125.874 9.432Z" fill="#E5E5E5"/>
<path d="M134.666 15.958L134.12 14.905C133.756 15.178 133.444 15.308 133.015 15.308C132.443 15.308 132.04 14.983 132.04 14.294V10.81H134.536V9.614H132.04V7.742H130.649V9.614H129.583L129.271 10.81H130.649V14.307C130.649 15.932 131.611 16.569 132.872 16.569C133.561 16.569 134.146 16.348 134.666 15.958Z" fill="#E5E5E5"/>
<path d="M140.51 10.979L140.471 9.614H139.132V16.4H140.523V13.124C140.523 11.278 141.901 10.849 143.058 10.927V9.51C142.174 9.51 141.134 9.77 140.51 10.979Z" fill="#E5E5E5"/>
<path d="M150.486 12.981C150.486 10.732 149.16 9.432 147.275 9.432C145.416 9.432 143.869 10.81 143.869 12.994C143.869 15.23 145.273 16.569 147.34 16.569C148.523 16.569 149.433 16.218 150.174 15.412L149.42 14.502C148.809 15.1 148.198 15.334 147.444 15.334C146.209 15.334 145.429 14.658 145.299 13.358H150.473C150.473 13.228 150.486 13.111 150.486 12.981ZM147.262 10.602C148.302 10.602 148.926 11.304 149.043 12.37H145.325C145.507 11.304 146.261 10.602 147.262 10.602Z" fill="#E5E5E5"/>
<path d="M155.044 16.556C156.136 16.556 156.929 16.205 157.618 15.529L156.864 14.554C156.318 15.087 155.785 15.282 155.135 15.282C154.017 15.282 153.068 14.515 153.068 13.02C153.068 11.629 154.004 10.732 155.213 10.732C155.863 10.732 156.383 10.953 156.825 11.408L157.579 10.394C156.955 9.783 156.149 9.471 155.161 9.471C153.146 9.471 151.638 10.914 151.638 13.007C151.638 15.23 153.107 16.556 155.044 16.556Z" fill="#E5E5E5"/>
<path d="M161.864 16.569C163.762 16.569 165.4 15.23 165.4 13.007C165.4 10.745 163.749 9.432 161.877 9.432C159.979 9.432 158.328 10.758 158.328 13.007C158.328 15.243 159.992 16.569 161.864 16.569ZM161.864 15.334C160.733 15.334 159.758 14.463 159.758 13.007C159.758 11.538 160.759 10.667 161.877 10.667C163.008 10.667 163.97 11.538 163.97 12.994C163.97 14.463 162.969 15.334 161.864 15.334Z" fill="#E5E5E5"/>
<path d="M168.452 10.979L168.413 9.614H167.074V16.4H168.465V13.124C168.465 11.278 169.843 10.849 171 10.927V9.51C170.116 9.51 169.076 9.77 168.452 10.979Z" fill="#E5E5E5"/>
<path d="M178.818 6.793H177.427V10.68C176.933 9.913 176.14 9.432 175.035 9.432C173.124 9.432 171.811 11.018 171.811 13.02C171.811 14.996 173.007 16.569 175.009 16.569C176.127 16.569 176.946 16.062 177.453 15.243L177.492 16.4H178.818V6.793ZM175.295 15.334C174.112 15.334 173.241 14.437 173.241 13.007C173.241 11.59 174.164 10.68 175.36 10.68C176.478 10.68 177.31 11.434 177.427 12.708V13.293C177.31 14.58 176.4 15.334 175.295 15.334Z" fill="#E5E5E5"/>
<path d="M187.124 12.981C187.124 10.732 185.798 9.432 183.913 9.432C182.054 9.432 180.507 10.81 180.507 12.994C180.507 15.23 181.911 16.569 183.978 16.569C185.161 16.569 186.071 16.218 186.812 15.412L186.058 14.502C185.447 15.1 184.836 15.334 184.082 15.334C182.847 15.334 182.067 14.658 181.937 13.358H187.111C187.111 13.228 187.124 13.111 187.124 12.981ZM183.9 10.602C184.94 10.602 185.564 11.304 185.681 12.37H181.963C182.145 11.304 182.899 10.602 183.9 10.602Z" fill="#E5E5E5"/>
<path d="M190.136 10.979L190.097 9.614H188.758V16.4H190.149V13.124C190.149 11.278 191.527 10.849 192.684 10.927V9.51C191.8 9.51 190.76 9.77 190.136 10.979Z" fill="#E5E5E5"/>
<path d="M193.244 17.596V18.571C195.22 18.519 196.273 17.427 196.273 16.127C196.273 15.165 195.779 14.346 195.779 13.592C195.779 12.76 196.208 12.396 197.196 12.11V11.889C196.208 11.59 195.779 11.239 195.779 10.42C195.779 9.653 196.273 8.834 196.273 7.872C196.273 6.559 195.22 5.48 193.244 5.441V6.403C194.401 6.442 194.882 7.04 194.882 7.872C194.882 8.678 194.388 9.497 194.388 10.42C194.388 11.187 194.817 11.603 195.545 12.006C194.817 12.396 194.388 12.799 194.388 13.592C194.388 14.502 194.882 15.308 194.882 16.127C194.882 16.946 194.401 17.557 193.244 17.596Z" fill="#D34037"/>
<path d="M34.7632 9.30368C32.8914 9.30368 31 10.6084 31 13.0859C31 15.5633 32.8882 16.8534 34.7534 16.8534C36.6187 16.8534 38.5068 15.56 38.5068 13.0859C38.5068 10.6117 36.622 9.30368 34.7632 9.30368ZM34.7501 15.3806C33.7193 15.3806 32.6755 14.5978 32.6755 13.0973C32.6755 11.5723 33.7259 10.7748 34.7632 10.7748C35.9773 10.7748 36.8248 11.7191 36.8248 13.0712C36.8248 14.588 35.7809 15.3806 34.7501 15.3806Z" fill="#E5E5E5"/>
<path d="M75.315 9.30368C73.4432 9.30368 71.5518 10.6084 71.5518 13.0859C71.5518 15.5633 73.44 16.8534 75.3052 16.8534C77.1705 16.8534 79.057 15.56 79.057 13.0859C79.057 10.6117 77.1737 9.30368 75.315 9.30368ZM75.3019 15.3806C74.2695 15.3806 73.2273 14.5978 73.2273 13.0973C73.2273 11.5723 74.2777 10.7748 75.315 10.7748C76.5274 10.7748 77.375 11.7191 77.375 13.0712C77.375 14.588 76.3327 15.3806 75.3019 15.3806Z" fill="#E5E5E5"/>
<path d="M42.8147 16.8276H42.4089L42.3811 16.7721L38.7766 9.49316H40.6565L42.6314 13.9359L44.6079 9.49316H46.4454L42.8147 16.8276Z" fill="#E5E5E5"/>
<path d="M50.3921 16.8534C48.1522 16.8534 46.7058 15.3692 46.7058 13.0728C46.7058 10.889 48.2274 9.30368 50.3234 9.30368C52.4194 9.30368 53.7414 10.7715 53.7414 13.0549C53.7414 13.1136 53.7414 13.1772 53.7414 13.2424C53.7414 13.3077 53.7414 13.3745 53.7414 13.443V13.5425H48.3976C48.5612 14.7429 49.2812 15.3757 50.5001 15.3757C50.867 15.3812 51.2311 15.3106 51.5691 15.1682C51.9072 15.0259 52.2118 14.8149 52.4636 14.5488L52.5405 14.4722L53.4453 15.56L53.3864 15.6253C52.6239 16.4652 51.67 16.8534 50.3921 16.8534ZM48.4287 12.3291H52.0463C51.8958 11.2983 51.2659 10.7096 50.307 10.7096C49.3482 10.7096 48.6479 11.3407 48.4287 12.3291Z" fill="#E5E5E5"/>
<path d="M68.2281 16.8273H67.8109L65.9849 12.4254L64.1589 16.8273H63.727L60.7867 9.4929H62.5767L64.0575 13.5719L65.782 9.45212H66.2123L67.9762 13.5719L69.4176 9.4929H71.1962L68.2281 16.8273Z" fill="#E5E5E5"/>
<path d="M59.4616 9.50489H59.3912C58.8864 9.49013 58.3864 9.60602 57.9399 9.84127C57.4934 10.0765 57.1157 10.4231 56.8437 10.8472L56.8093 9.49184H55.2287V16.6794H56.8649V13.2708C56.8649 12.5678 57.2298 12.0002 57.8925 11.6121C58.506 11.2533 59.3552 11.0885 59.9164 11.2272C59.7872 10.7102 59.4616 9.50489 59.4616 9.50489Z" fill="#E5E5E5"/>
<path d="M86.1318 16.679H84.4956V10.9233H83.0427L83.4174 9.49137H84.4956V9.09668C84.4956 7.4168 85.4609 6.41377 87.0808 6.41377C87.7401 6.4027 88.3859 6.6009 88.9248 6.97971L89 7.03353L88.2736 8.26327L88.1819 8.18824C87.9057 7.94941 87.5511 7.81998 87.1855 7.82454C86.5163 7.82454 86.1318 8.2649 86.1318 9.03471V9.49627H88.4945V10.9282H86.1318V16.679Z" fill="#E5E5E5"/>
<path d="M81.9827 16.679H80.3465V6.58829H81.9827V16.679Z" fill="#E5E5E5"/>
<path d="M24 12.4452C24.0184 12.4452 18.1968 9.15961 18.1797 9.06297C18.048 8.36463 17.8821 7.21147 17.0791 6.61492C16.3879 6.10598 11.7222 4.0058 11.713 3.98389C10.8539 2.71303 10.0926 1.38139 9.43542 0C8.81129 0.45974 8.30367 1.05391 7.95187 1.73649C7.60006 2.41907 7.41352 3.17175 7.40668 3.93622C5.11472 4.2577 2.96357 5.21092 1.2046 6.68449C5.76631 5.66146 7.08018 6.60461 7.08018 6.60461C5.58669 6.86499 4.14758 7.36567 2.82128 8.08633C0.876794 9.13255 0 10.3888 0 10.3888C0 10.3888 4.41557 9.15317 7.80426 10.3553C6.22401 10.5735 4.7551 11.2763 3.60855 12.3627C10.6321 13.2144 14.0959 19.1799 15.5532 24C16.0891 15.4266 11.7275 12.1707 11.7275 12.1707C12.9939 12.2596 14.5869 13.2234 15.6059 14.6574C18.7129 14.3147 20.4427 15.2463 20.4283 15.2463C20.394 15.2463 22.1081 14.7309 23.3167 14.1859C23.2127 14.0325 22.7756 13.5004 22.5268 13.2028C22.561 13.2053 23.5168 13.1499 24 12.4452ZM14.2986 8.65067C14.3671 8.63392 15.8889 8.21517 16.3234 8.37623C16.7183 8.52182 16.7262 9.62216 16.7262 9.62216C16.7262 9.62216 15.8244 9.74585 14.2986 8.65067Z" fill="#E5E5E5"/>
</g>
<defs>
<clipPath id="clip0_57_196">
<rect width="198" height="24" fill="white"/>
</clipPath>
</defs>
</svg>
