<svg width="16" height="16" viewBox="0 0 16 16" fill="none" xmlns="http://www.w3.org/2000/svg">
<path d="M5.60002 1.59999C5.60002 1.15816 5.9582 0.799988 6.40002 0.799988H9.60003C10.0419 0.799988 10.4 1.15816 10.4 1.59999V2.39999H12.8C13.2419 2.39999 13.6 2.75816 13.6 3.19999V3.99999H2.40002V3.19999C2.40002 2.75816 2.7582 2.39999 3.20002 2.39999H5.60002V1.59999Z" fill="#999999"/>
<path fill-rule="evenodd" clip-rule="evenodd" d="M12.8 5.59999H3.20002V14.4C3.20002 14.8418 3.5582 15.2 4.00002 15.2H12C12.4419 15.2 12.8 14.8418 12.8 14.4V5.59999ZM7.20002 13.6V7.19999H5.60002V13.6H7.20002ZM8.80002 13.6V7.19999H10.4V13.6H8.80002Z" fill="#999999"/>
</svg>
